<mxfile host="app.diagrams.net" modified="2023-08-21T12:26:46.709Z" agent="Mozilla/5.0 (Windows NT 10.0; Win64; x64) AppleWebKit/537.36 (KHTML, like Gecko) Chrome/115.0.0.0 Safari/537.36 Edg/115.0.1901.203" version="21.6.8" etag="uAyfK8nLvTzO41ARG69a" type="github">
  <diagram name="第 1 页" id="6_31h-lC-aBIoO_jp5bL">
    <mxGraphModel>
      <root>
        <mxCell id="0" />
        <mxCell id="1" parent="0" />
      </root>
    </mxGraphModel>
  </diagram>
</mxfile>
